PathFileType	4	(X/Y/Z)	/Users/itak/Documents/Research/Walk-IL/dataset/trc/00515_00183.trc
DataRate	CameraRate	NumFrames	NumMarkers	Units	OrigDataRate	OrigDataStartFrame	OrigNumFrames
100.000000	100.000000	4	55	mm	100.000000	195	521
Frame#	Time	RPSI			LPSI			L3			STRN			T10			C7			CLAV			RBAK			LBAK			LSHO			LUPA			LAEL			LAOL			LWTS			LWPS			LFRA			LIFD			LHPS			LHTS			RSHO			RUPA			RAEL			RAOL			RWTS			RWPS			RFRA			RIFD			RHTS			RHPS			RBHD			LFHD			RFHD			LBHD			LHIP			RHIP			RASI			LASI			LKNE			LTHI			LANK			LTIP			LTOE			LMT1			LMT5			LHEE			RKNE			RTHI			RANK			RTIP			RTOE			RMT1			RMT5			RHEE			*53			*54			
		X1	Y1	Z1	X2	Y2	Z2	X3	Y3	Z3	X4	Y4	Z4	X5	Y5	Z5	X6	Y6	Z6	X7	Y7	Z7	X8	Y8	Z8	X9	Y9	Z9	X10	Y10	Z10	X11	Y11	Z11	X12	Y12	Z12	X13	Y13	Z13	X14	Y14	Z14	X15	Y15	Z15	X16	Y16	Z16	X17	Y17	Z17	X18	Y18	Z18	X19	Y19	Z19	X20	Y20	Z20	X21	Y21	Z21	X22	Y22	Z22	X23	Y23	Z23	X24	Y24	Z24	X25	Y25	Z25	X26	Y26	Z26	X27	Y27	Z27	X28	Y28	Z28	X29	Y29	Z29	X30	Y30	Z30	X31	Y31	Z31	X32	Y32	Z32	X33	Y33	Z33	X34	Y34	Z34	X35	Y35	Z35	X36	Y36	Z36	X37	Y37	Z37	X38	Y38	Z38	X39	Y39	Z39	X40	Y40	Z40	X41	Y41	Z41	X42	Y42	Z42	X43	Y43	Z43	X44	Y44	Z44	X45	Y45	Z45	X46	Y46	Z46	X47	Y47	Z47	X48	Y48	Z48	X49	Y49	Z49	X50	Y50	Z50	X51	Y51	Z51	X52	Y52	Z52	X53	Y53	Z53	X54	Y54	Z54	X55	Y55	Z55	

196	1.95	-951.2947387695312	965.7725830078125	-281.8944702148438	-930.6753540039062	962.1857299804688	-403.6810302734375	-933.49853515625	1039.793823242188	-351.0813598632812	-693.7167358398438	1179.940673828125	-337.8174438476562	-931.16748046875	1144.992309570312	-349.8038635253906	-858.3372192382812	1368.126342773438	-343.7379760742188	-716.7429809570312	1278.754272460938	-338.7295837402344	-926.0967407226562	1253.379150390625	-260.5037231445312	-885.7723388671875	1316.063598632812	-431.54833984375	-786.0759887695312	1356.044921875	-501.5939025878906	-809.1769409179688	1231.302124023438	-562.5659790039062	-816.8152465820312	1021.698181152344	-594.0100708007812	-885.9317016601562	1017.292724609375	-521.806396484375	-747.2184448242188	822.843994140625	-562.7545166015625	-833.5670776367188	796.8234252929688	-593.803955078125	-808.5449829101562	933.7316284179688	-597.8568115234375	-764.6417236328125	665.666015625	-555.1356811523438	-814.811279296875	741.4883422851562	-593.32568359375	-749.9269409179688	744.7899780273438	-583.041748046875	-813.8884887695312	1359.338500976562	-193.5726318359375	-842.650634765625	1295.394653320312	-138.6398162841797	-875.5416870117188	1031.846801757812	-87.17733764648438	-921.3728637695312	1016.387512207031	-132.4317779541016	-789.4853515625	821.4353637695312	-96.29304504394531	-872.8391723632812	803.6055297851562	-60.10981369018555	-878.73193359375	977.5841064453125	-78.69821166992188	-801.5952758789062	663.0897216796875	-85.02388000488281	-786.7872314453125	729.9176025390625	-65.41933441162109	-856.4906005859375	733.5343627929688	-53.27231597900391	-804.5126342773438	1512.214233398438	-248.5122985839844	-661.9446411132812	1571.876220703125	-375.7892150878906	-675.018310546875	1559.905883789062	-249.9268493652344	-802.5615844726562	1524.26708984375	-407.5910339355469	-815.42041015625	875.586181640625	-519.1939697265625	-856.8697509765625	872.655517578125	-139.9281616210938	-757.8236083984375	910.8451538085938	-202.3543090820312	-727.734375	906.5001831054688	-442.9100036621094	-861.9192504882812	459.4282531738281	-459.2052001953125	-825.4074096679688	612.8770141601562	-488.2127380371094	-1020.171020507812	49.17184066772461	-431.7824401855469	-914.7728881835938	316.8211975097656	-454.6720886230469	-829.4335327148438	38.96433258056641	-354.6076049804688	-907.52734375	42.70204544067383	-329.8858032226562	-908.8692016601562	43.74670028686523	-431.6868591308594	-1073.513061523438	45.67612075805664	-373.5424194335938	-721.8229370117188	506.78515625	-177.2401733398438	-797.8722534179688	751.9262084960938	-140.6487274169922	-907.458740234375	112.1308059692383	-182.3170013427734	-739.2218017578125	364.3316955566406	-179.37353515625	-717.0638427734375	59.22063446044922	-195.3415679931641	-771.7994384765625	69.02913665771484	-243.2299957275391	-806.2845458984375	76.85556030273438	-152.3663177490234	-952.4273071289062	119.3405456542969	-236.6529693603516	nan	nan	nan	nan	nan	nan	
197	1.96	-947.412841796875	965.6563110351562	-282.111328125	-926.9322509765625	961.749267578125	-403.9049377441406	-929.4100952148438	1039.598510742188	-351.5262756347656	-689.52001953125	1179.305786132812	-338.1903381347656	-927.2470092773438	1144.809204101562	-350.5287475585938	-853.76025390625	1367.781005859375	-344.2394409179688	-712.3799438476562	1278.156005859375	-339.0200500488281	-921.9378662109375	1253.158447265625	-261.2113342285156	-881.1121826171875	1315.83203125	-432.1528930664062	-781.1299438476562	1355.748168945312	-501.9286193847656	-803.973876953125	1231.093994140625	-563.1189575195312	-811.2540893554688	1021.488525390625	-594.8173217773438	-880.63427734375	1016.971313476562	-522.9404907226562	-741.9255981445312	822.407958984375	-563.4242553710938	-828.03564453125	796.6085205078125	-594.997314453125	-802.9168701171875	933.5877685546875	-598.7063598632812	-759.6492309570312	665.2509765625	-555.9861450195312	-809.5208129882812	741.1988525390625	-594.396484375	-744.607666015625	744.3863525390625	-583.7842407226562	-809.6655883789062	1358.811157226562	-194.0289459228516	-838.7942504882812	1295.02587890625	-139.20166015625	-873.6373291015625	1031.849853515625	-87.74553680419922	-919.02978515625	1016.510681152344	-133.4494018554688	-789.2764892578125	820.6570434570312	-95.55453491210938	-873.1699829101562	803.577880859375	-60.20700073242188	-877.3353271484375	977.6138916015625	-79.11521148681641	-802.9324340820312	662.3890991210938	-84.11386108398438	-787.7516479492188	729.1239624023438	-64.45471954345703	-857.4810180664062	733.3884887695312	-53.08346939086914	-799.570556640625	1511.734619140625	-248.6713714599609	-656.7642822265625	1570.982543945312	-375.8533630371094	-669.901611328125	1558.952270507812	-249.9938049316406	-797.4998168945312	1523.90576171875	-407.7554321289062	-812.2957153320312	874.6554565429688	-519.39990234375	-852.2692260742188	873.0869750976562	-140.0495147705078	-753.7059326171875	911.0140991210938	-202.9808502197266	-724.062744140625	905.731201171875	-443.4890441894531	-860.1212158203125	458.9663391113281	-459.2735290527344	-822.9011840820312	612.18798828125	-488.2653503417969	-1020.100769042969	49.20866394042969	-431.842041015625	-913.7363891601562	316.6248474121094	-454.7357788085938	-829.5038452148438	38.98410797119141	-354.7621765136719	-907.7022705078125	42.70834350585938	-329.9652709960938	-908.84716796875	43.63034439086914	-431.8137512207031	-1073.52099609375	45.96902847290039	-373.6321105957031	-714.968505859375	508.1087341308594	-177.9410095214844	-793.224853515625	752.548095703125	-140.8798980712891	-892.4987182617188	109.4056854248047	-183.2161560058594	-729.7432250976562	365.0982971191406	-179.9026031494141	-700.9581298828125	60.42459106445312	-195.2034149169922	-755.5616455078125	69.08408355712891	-243.3672332763672	-790.7484741210938	76.37976837158203	-152.6991882324219	-937.36279296875	115.5576553344727	-237.7428894042969	nan	nan	nan	nan	nan	nan	
198	1.97	-943.4118041992188	965.447021484375	-282.3025817871094	-923.0482788085938	961.2457885742188	-404.1016845703125	-925.2007446289062	1039.328125	-351.9350891113281	-685.2068481445312	1178.610473632812	-338.5291748046875	-923.2328491210938	1144.557861328125	-351.2013854980469	-849.0865478515625	1367.362670898438	-344.6889343261719	-707.9033813476562	1277.491577148438	-339.2812805175781	-917.6476440429688	1252.858764648438	-261.8458251953125	-876.3636474609375	1315.523559570312	-432.6991577148438	-776.1206665039062	1355.3759765625	-502.208740234375	-798.7029418945312	1230.82421875	-563.6356201171875	-805.6036376953125	1021.2099609375	-595.5843505859375	-875.2469482421875	1016.575622558594	-524.0086059570312	-736.4418334960938	821.9616088867188	-564.0145874023438	-822.234375	796.3309326171875	-596.1467895507812	-797.1347045898438	933.3775024414062	-599.4913940429688	-754.3402099609375	664.8201293945312	-556.7236328125	-803.9661865234375	740.8379516601562	-595.3711547851562	-739.0390625	743.9608154296875	-584.4198608398438	-805.3036499023438	1358.223754882812	-194.4327087402344	-834.7796020507812	1294.594482421875	-139.7085113525391	-871.5809936523438	1031.810913085938	-88.30069732666016	-916.5282592773438	1016.587341308594	-134.4378204345703	-789.0701293945312	819.7609252929688	-94.82433319091797	-873.5068359375	803.5061645507812	-60.35410690307617	-875.8004760742188	977.5916748046875	-79.530517578125	-804.4339599609375	661.60595703125	-83.29874420166016	-788.8153686523438	728.2156982421875	-63.54389190673828	-858.5696411132812	733.1900024414062	-52.97336578369141	-794.545166015625	1511.14306640625	-248.7624359130859	-651.5006713867188	1570.041748046875	-375.8212585449219	-664.7155151367188	1557.91455078125	-249.9585723876953	-792.3709106445312	1523.494873046875	-407.8448791503906	-809.0610961914062	873.6650390625	-519.5653686523438	-847.6870727539062	873.435302734375	-140.0679016113281	-749.4388427734375	911.0983276367188	-203.4585571289062	-720.257080078125	904.8877563476562	-443.9486389160156	-858.1065063476562	458.4520568847656	-459.2132263183594	-820.1860961914062	611.4237670898438	-488.1817016601562	-1020.028381347656	49.30446243286133	-431.9006652832031	-912.5501708984375	316.3720397949219	-454.6966247558594	-829.5802612304688	39.02009582519531	-354.9289855957031	-907.8467407226562	42.69963073730469	-330.0215454101562	-908.8197021484375	43.53056716918945	-431.9170227050781	-1073.518676757812	46.26655960083008	-373.738037109375	-708.2388916015625	509.2607116699219	-178.6370697021484	-788.44140625	753.079345703125	-141.0588989257812	-876.7672119140625	106.2602844238281	-183.9683990478516	-720.2077026367188	365.6883544921875	-180.3749237060547	-684.0526123046875	61.60520935058594	-194.9392700195312	-738.4957275390625	69.02371215820312	-243.3649139404297	-774.4099731445312	75.7159423828125	-152.8945007324219	-921.5336303710938	111.2382659912109	-238.6720428466797	nan	nan	nan	nan	nan	nan	
199	1.98	-939.2971801757812	965.1312866210938	-282.4637756347656	-919.0288696289062	960.6633911132812	-404.268310546875	-920.8863525390625	1038.974609375	-352.3043212890625	-680.7642211914062	1177.83984375	-338.8261413574219	-919.0973510742188	1144.226318359375	-351.8109436035156	-844.3087768554688	1366.862060546875	-345.0856018066406	-703.3082275390625	1276.745483398438	-339.5078735351562	-913.2198486328125	1252.47314453125	-262.4132690429688	-871.52197265625	1315.12548828125	-433.1885070800781	-771.0428466796875	1354.9111328125	-502.4373168945312	-793.3634643554688	1230.46630859375	-564.1115112304688	-799.8655395507812	1020.841918945312	-596.3125	-869.7821044921875	1016.083557128906	-525.0172729492188	-730.7642822265625	821.4971923828125	-564.5236206054688	-816.1757202148438	795.9658203125	-597.242431640625	-791.21142578125	933.0736694335938	-600.2177124023438	-748.7002563476562	664.3618774414062	-557.3539428710938	-798.1375732421875	740.3910522460938	-596.2453002929688	-733.2190551757812	743.5067749023438	-584.9540405273438	-800.798828125	1357.563720703125	-194.7800903320312	-830.6061401367188	1294.083984375	-140.1561126708984	-869.3648681640625	1031.712646484375	-88.82969665527344	-913.865478515625	1016.606567382812	-135.3881225585938	-788.844970703125	818.7460327148438	-94.12288665771484	-873.8209228515625	803.3875122070312	-60.54650497436523	-874.1165771484375	977.5035400390625	-79.93576812744141	-806.0614013671875	660.740234375	-82.59049224853516	-789.94287109375	727.1919555664062	-62.70531845092773	-859.71826171875	732.9320068359375	-52.93854522705078	-789.4384155273438	1510.427612304688	-248.7847747802734	-646.1488647460938	1569.04833984375	-375.692626953125	-659.4622192382812	1556.788452148438	-249.8221588134766	-787.171875	1523.023193359375	-407.8605041503906	-805.6718139648438	872.6268310546875	-519.6963500976562	-843.113525390625	873.6906127929688	-139.9915771484375	-745.0369262695312	911.0755004882812	-203.7953491210938	-716.3233032226562	903.9631958007812	-444.291748046875	-855.8751220703125	457.8724060058594	-459.0228271484375	-817.2483520507812	610.5714111328125	-487.9654541015625	-1019.94921875	49.45914077758789	-431.942138671875	-911.2154541015625	316.054931640625	-454.5491638183594	-829.6349487304688	39.07609558105469	-355.0992736816406	-907.9420166015625	42.67496871948242	-330.0494689941406	-908.7877197265625	43.44985198974609	-431.9903869628906	-1073.503173828125	46.5656852722168	-373.8545227050781	-701.6196899414062	510.22607421875	-179.3030700683594	-783.4915771484375	753.5130615234375	-141.1581878662109	-860.3099365234375	102.7863388061523	-184.5650329589844	-710.6109008789062	366.1095275878906	-180.7822418212891	-666.4373779296875	62.81103134155273	-194.6294250488281	-720.7079467773438	68.92433929443359	-243.2808990478516	-757.33056640625	74.91799926757812	-152.9950561523438	-905.0005493164062	106.5060958862305	-239.4156188964844	nan	nan	nan	nan	nan	nan	
